<svg width="33" height="35" viewBox="0 0 33 35" fill="none" xmlns="http://www.w3.org/2000/svg">
<path d="M0.830189 0C0.371925 0 0 0.373299 0 0.833256C0 1.29321 0.371925 1.66651 0.830189 1.66651H4.37146C4.78158 1.66651 5.13705 1.97596 5.19517 2.38259L8.19163 23.4386C8.22982 23.7019 8.13611 23.9713 7.94517 24.1579L6.34965 25.6975C5.61244 26.4074 5.38079 27.4784 5.76268 28.4316C6.14456 29.3832 7.05209 30.0005 8.07488 30.0005H10.426C10.1404 30.4921 9.96551 31.057 9.96551 31.667C9.96551 32.2769 10.1404 32.8419 10.426 33.3335H6.53774C6.07947 33.3335 5.70755 33.7068 5.70755 34.1667C5.70755 34.6267 6.07947 35 6.53774 35H13.0755C13.1004 35 13.1219 34.9854 13.1468 34.9837C13.1933 34.9854 13.2365 35 13.283 35C15.1144 35 16.6038 33.5051 16.6038 31.667C16.6038 31.057 16.4289 30.4921 16.1433 30.0005H23.709C23.4234 30.4921 23.2485 31.057 23.2485 31.667C23.2485 32.2769 23.4234 32.8419 23.709 33.3335H21.4811C21.0229 33.3335 20.6509 33.7068 20.6509 34.1667C20.6509 34.6267 21.0229 35 21.4811 35H26.3585C26.3834 35 26.4049 34.9854 26.4298 34.9837C26.4763 34.9854 26.5195 35 26.566 35C28.3974 35 29.8868 33.5051 29.8868 31.667C29.8868 31.057 29.7119 30.4921 29.4263 30.0005H32.1698C32.6281 30.0005 33 29.6272 33 29.1672C33 28.7073 32.6281 28.3307 32.1698 28.3307H8.07164C7.55194 28.3307 7.34797 27.9316 7.29982 27.8099C7.25167 27.6883 7.11915 27.2586 7.4944 26.8953L9.09316 25.359C9.67097 24.8024 9.94545 23.9942 9.83255 23.201L9.61527 21.6647H27.7594C28.9034 21.6647 29.8981 20.8852 30.1754 19.7703L32.7017 9.63778C32.881 8.91618 32.7346 8.15783 32.2963 7.55789C31.8579 6.95795 31.1851 6.58577 30.4446 6.53911L7.24794 5.03859L6.83609 2.14498C6.66175 0.921763 5.60346 0 4.37146 0H0.830189ZM7.48791 6.72463L14.9434 7.20636V9.71264L7.84463 9.22115L7.48791 6.72463ZM16.6038 7.31377L23.2453 7.74342V10.2888L16.6038 9.82656V7.31377ZM24.9057 7.85083L30.3376 8.20236C30.6746 8.22403 30.869 8.42747 30.9537 8.54413C31.0401 8.66078 31.1713 8.90745 31.0899 9.23742L30.7008 10.803L24.9057 10.4027V7.85083ZM8.08461 10.9072L14.9434 11.3824V14.7317L8.56456 14.2695L8.08461 10.9072ZM16.6038 11.4996L23.2453 11.9585V15.3274L16.6038 14.8489V11.4996ZM24.9057 12.0724L30.2889 12.4468L29.462 15.7733L24.9057 15.4445V12.0724ZM8.8013 15.9588L14.9434 16.4015V19.9981H9.37854L8.8013 15.9588ZM16.6038 16.5219L23.2453 16.9971V19.9981H16.6038V16.5219ZM24.9057 17.1175L29.0534 17.417L28.5669 19.3667C28.4723 19.7383 28.1413 19.9981 27.7594 19.9981H24.9057V17.1175ZM13.283 29.9972C14.1979 29.9972 14.9434 30.7438 14.9434 31.6637C14.9434 32.5836 14.1979 33.3302 13.283 33.3302C12.3682 33.3302 11.6226 32.5836 11.6226 31.6637C11.6226 30.7438 12.3682 29.9972 13.283 29.9972ZM26.566 29.9972C27.4809 29.9972 28.2264 30.7438 28.2264 31.6637C28.2264 32.5836 27.4809 33.3302 26.566 33.3302C25.6512 33.3302 24.9057 32.5836 24.9057 31.6637C24.9057 30.7438 25.6512 29.9972 26.566 29.9972ZM3.21698 33.2749C3.00528 33.2749 2.79423 33.355 2.6365 33.5125C2.47046 33.6642 2.38679 33.8817 2.38679 34.0984C2.38679 34.215 2.40184 34.3125 2.45165 34.4109C2.48486 34.5125 2.55348 34.6111 2.6365 34.6778C2.78593 34.8461 3.00113 34.9316 3.21698 34.9316C3.33321 34.9316 3.43192 34.9129 3.53154 34.8796C3.63117 34.8296 3.73105 34.7643 3.79746 34.681C3.88048 34.6144 3.9491 34.5141 3.98231 34.4141C4.03212 34.3141 4.04717 34.215 4.04717 34.0984C4.04717 33.8817 3.9635 33.6642 3.79746 33.5125C3.63973 33.355 3.42868 33.2749 3.21698 33.2749ZM18.9841 33.2749C18.7703 33.2749 18.5595 33.355 18.4101 33.5125C18.244 33.6642 18.1604 33.8817 18.1604 34.0984C18.1604 34.3317 18.244 34.531 18.4101 34.681C18.5595 34.8493 18.7747 34.9316 18.9906 34.9316C19.1068 34.9316 19.2055 34.9129 19.3051 34.8796C19.4048 34.8296 19.5046 34.7643 19.571 34.681C19.6541 34.6144 19.7227 34.5141 19.7559 34.4141C19.8057 34.3141 19.8208 34.215 19.8208 34.0984C19.8208 33.8817 19.7371 33.6642 19.571 33.5125C19.4133 33.355 19.1979 33.2749 18.9841 33.2749Z" fill="url(#paint0_linear_20_3)"/>
<defs>
<linearGradient id="paint0_linear_20_3" x1="0.000830189" y1="17.5" x2="28.1226" y2="17.5" gradientUnits="userSpaceOnUse">
<stop stop-color="#000092"/>
<stop offset="1" stop-color="#FF00F3"/>
</linearGradient>
</defs>
</svg>
